<?xml version="1.0" encoding="UTF-8" standalone="no"?>
<!-- Created with Inkscape (http://www.inkscape.org/) -->

<svg
   xmlns:dc="http://purl.org/dc/elements/1.1/"
   xmlns:cc="http://creativecommons.org/ns#"
   xmlns:rdf="http://www.w3.org/1999/02/22-rdf-syntax-ns#"
   xmlns:svg="http://www.w3.org/2000/svg"
   xmlns="http://www.w3.org/2000/svg"
   xmlns:sodipodi="http://sodipodi.sourceforge.net/DTD/sodipodi-0.dtd"
   xmlns:inkscape="http://www.inkscape.org/namespaces/inkscape"
   width="800"
   height="800"
   viewBox="0 0 211.66666 211.66667"
   version="1.1"
   id="svg8"
   sodipodi:docname="src-key-logo-bg.svg"
   inkscape:version="0.92.4 (5da689c313, 2019-01-14)">
  <defs
     id="defs2">
    <inkscape:path-effect
       effect="roughen"
       id="path-effect4859"
       is_visible="true"
       method="segments"
       max_segment_size="10"
       segments="2"
       displace_x="10;1"
       displace_y="10;1"
       global_randomize="1;1529763305"
       handles="along"
       shift_nodes="true"
       fixed_displacement="false"
       spray_tool_friendly="false" />
    <inkscape:path-effect
       gridpoint32x33x34x35="76.0928,169.65101"
       gridpoint29x31="81.660876,169.65101"
       gridpoint28x30="70.524724,169.65101"
       gridpoint25x27="87.228952,169.65101"
       gridpoint24x26="64.956648,169.65101"
       gridpoint22x23="76.0928,177.51576"
       gridpoint20x21="76.0928,161.78627"
       gridpoint19="81.660876,177.51576"
       gridpoint18="70.524724,177.51576"
       gridpoint17="81.660876,161.78627"
       gridpoint16="70.524724,161.78627"
       gridpoint15="87.228952,177.51576"
       gridpoint14="64.956648,177.51576"
       gridpoint13="87.228952,161.78627"
       gridpoint12="64.956648,161.78627"
       gridpoint10x11="76.0928,185.38051"
       gridpoint8x9="76.0928,153.92152"
       gridpoint7="81.660876,185.38051"
       gridpoint6="70.524724,185.38051"
       gridpoint5="81.660876,153.92152"
       gridpoint4="70.524724,153.92152"
       gridpoint3="87.228952,185.38051"
       gridpoint2="64.956648,185.38051"
       gridpoint1="87.228952,153.92152"
       gridpoint0="64.956648,153.92152"
       effect="lattice2"
       id="path-effect4842"
       is_visible="true"
       horizontal_mirror="false"
       vertical_mirror="false"
       live_update="true" />
    <inkscape:path-effect
       effect="interpolate_points"
       id="path-effect4840"
       is_visible="true"
       interpolator_type="CentripetalCatmullRom" />
    <inkscape:path-effect
       effect="simplify"
       id="path-effect4838"
       is_visible="true"
       steps="1"
       threshold="0.002"
       smooth_angles="0"
       helper_size="5"
       simplify_individual_paths="false"
       simplify_just_coalesce="false" />
    <inkscape:path-effect
       effect="bounding_box"
       id="path-effect4832"
       is_visible="true"
       linkedpath=""
       visualbounds="false" />
  </defs>
  <sodipodi:namedview
     id="base"
     pagecolor="#ffffff"
     bordercolor="#666666"
     borderopacity="1.0"
     inkscape:pageopacity="0.0"
     inkscape:pageshadow="2"
     inkscape:zoom="0.49497475"
     inkscape:cx="625.12252"
     inkscape:cy="326.60661"
     inkscape:document-units="mm"
     inkscape:current-layer="g4857"
     showgrid="false"
     units="px"
     inkscape:snap-global="false"
     inkscape:window-width="1366"
     inkscape:window-height="705"
     inkscape:window-x="-8"
     inkscape:window-y="-8"
     inkscape:window-maximized="1" />
  <metadata
     id="metadata5">
    <rdf:RDF>
      <cc:Work
         rdf:about="">
        <dc:format>image/svg+xml</dc:format>
        <dc:type
           rdf:resource="http://purl.org/dc/dcmitype/StillImage" />
        <dc:title></dc:title>
      </cc:Work>
    </rdf:RDF>
  </metadata>
  <g
     inkscape:label="Capa 1"
     inkscape:groupmode="layer"
     id="layer1"
     transform="translate(0,-85.333317)"
     style="display:none">
    <rect
       style="fill:#000000;fill-opacity:1;stroke:none;stroke-width:0.26458332"
       id="rect36"
       width="122.0863"
       height="127"
       x="50.648811"
       y="137.11606" />
    <path
       style="fill:#ffffff;fill-rule:evenodd;stroke-width:0.94864851"
       d="m 379.81641,300.7687 c -53.82269,7.2e-4 -97.45438,31.9445 -97.45508,81.92271 0.0117,39.4932 27.60293,74.41825 68.16797,86.28711 V 610 c 0,6.33146 5.20038,10.29512 11.42968,11.42773 l 31.42774,5.71485 c 6.2293,1.13261 11.26106,-5.09843 11.42773,-11.42774 l 0.30078,-11.42968 h 60.59961 c 5.54004,0 12.67625,-5.14932 10,-10 L 470,583.92773 c -2.67628,-4.85072 -4.46772,-9.70746 -10,-10 l -54.00977,-2.85546 0.48047,-18.21485 h 37.10157 c 6.72714,0 13.9315,-5.65766 12.14257,-12.14258 l -2.85742,-10.35742 c -1.78896,-6.48495 -5.41555,-12.17659 -12.14258,-12.14258 l -33.33789,0.17774 1.30078,-49.36524 c 40.75282,-11.73276 68.54847,-46.71693 68.59571,-86.33593 -7e-4,-49.97892 -43.63358,-81.92299 -97.45703,-81.92271 z"
       transform="matrix(0.26458333,0,0,0.26458333,0,85.333317)"
       id="path14"
       inkscape:connector-curvature="0"
       sodipodi:nodetypes="cccsccccscccccsccccccc" />
    <path
       style="fill:#ff6347;fill-opacity:1;fill-rule:evenodd;stroke-width:0.30929953"
       d="m 119.93502,187.19789 c -6.24879,2.5077 -8.70433,11.04642 -19.44168,11.04642 -10.737348,0 -13.349116,-6.50785 -19.441685,-11.04642 6.717459,-4.38234 8.704345,-11.04641 19.441685,-11.04641 10.73735,0 13.34911,8.07005 19.44168,11.04641 z"
       id="path32"
       inkscape:connector-curvature="0"
       sodipodi:nodetypes="cscsc" />
    <path
       style="fill:#000000;fill-rule:evenodd;stroke-width:0.27233887"
       d="m 102.26077,187.61639 c 0,5.58119 -1.76743,10.10565 -1.76743,10.10565 0,0 -1.767429,-4.52445 -1.767429,-10.10565 10e-7,-5.58119 1.767429,-10.10563 1.767429,-10.10563 0,0 1.76743,4.52446 1.76743,10.10563 z"
       id="path34"
       inkscape:connector-curvature="0"
       sodipodi:nodetypes="scscs" />
  </g>
  <g
     transform="translate(0,-85.333317)"
     id="g4857"
     inkscape:groupmode="layer"
     inkscape:label="Capa 1 copia"
     style="display:inline">
    <path
       style="fill:#1a1a1a;fill-rule:evenodd;stroke-width:0.35994753"
       d="m 52.27531,163.68992 c -10.211026,1.4e-4 -17.814579,1.14861 -24.506181,6.54918 -6.691603,5.40057 -13.818251,13.29174 -13.818383,22.77341 0.0022,7.49249 1.551919,17.56891 6.369255,23.62136 4.817336,6.05245 13.016772,8.65004 20.712607,10.90175 l 0.582633,27.20696 -3.348641,24.1687 c 1.325836,1.98279 1.056554,3.70037 2.176759,4.62577 1.120205,0.9254 4.718261,1.72051 5.900061,1.93539 l 4.78963,0.79596 5.54304,0.18465 c 1.43368,0.4779 0.84125,1.31377 1.68488,0.54199 0.84363,-0.77179 3.26093,-3.32826 3.29255,-4.52904 l 0.0775,-0.90467 -1.01717,-5.63663 12.77349,-0.0529 10.17008,2.0315 c 1.53403,0.20142 2.77814,-0.13032 3.71164,-0.79848 0.93351,-0.66817 1.55451,-1.66174 1.04679,-2.58199 l -0.68725,-1.96154 -0.9491,-2.02299 c -0.77279,-0.89837 -1.60418,-2.10497 -2.2297,-2.80414 -0.62552,-0.69916 -1.073,-1.071 -2.12256,-1.1265 l -9.69836,0.0822 -10.788,-1.03859 1.19205,-2.4153 -1.45674,-6.08849 7.36562,1.14478 9.18694,-0.0816 c 0.27267,0.29116 -0.31694,-1.63533 0.34977,-2.40679 0.66671,-0.77146 2.62234,-0.41236 2.28295,-1.64265 l -1.78067,-4.18493 0.0753,1.41703 c 0.0182,0.23772 0.0318,0.48332 0.0394,0.73893 l -0.0394,-0.73893 c -0.13628,-1.77912 -0.56104,-3.06863 -1.16022,-4.02171 -0.67923,-1.08043 -1.99837,-1.81517 -3.27459,-1.80871 l -6.65569,1.35874 -6.44299,-1.98108 -1.41672,-8.14772 2.86905,-9.61958 c 7.68479,-2.31998 14.012,-7.26845 18.57208,-13.04606 4.56008,-5.77761 7.26024,-12.26511 7.26921,-19.78147 -1.4e-4,-9.48179 -4.79788,-17.66219 -11.46643,-23.09261 -6.66855,-5.43041 -14.96335,-7.56324 -25.17452,-7.56319 z m -0.24421,15.57101 c 15.39815,0 19.14346,11.57304 27.88066,15.84137 -8.96122,3.59623 -12.48251,15.84137 -27.88066,15.84137 -15.398147,0 -19.143468,-9.33273 -27.880659,-15.84137 9.63333,-6.28461 12.482525,-15.84137 27.880659,-15.84137 z"
       id="path4851"
       inkscape:connector-curvature="0" />
    <path
       sodipodi:nodetypes="scscs"
       inkscape:connector-curvature="0"
       id="path4855"
       d="m 54.56574,195.7026 c 0,8.00383 -2.53463,14.49224 -2.53463,14.49224 0,0 -2.53463,-6.48839 -2.53463,-14.49224 1e-5,-8.00385 2.53463,-14.49222 2.53463,-14.49222 0,0 2.53463,6.48841 2.53463,14.49222 z"
       style="fill:#000000;fill-rule:evenodd;stroke-width:0.39055395" />
    <path
       inkscape:connector-curvature="0"
       id="path47"
       d="m 148.49234,88.854453 c -10.21103,1.4e-4 -17.81458,1.14861 -24.50618,6.54918 -6.6916,5.400567 -13.81825,13.291737 -13.81838,22.773407 0.002,7.49249 1.55191,17.56891 6.36925,23.62136 4.81734,6.05245 13.01677,8.65004 20.71261,10.90175 l 0.58263,27.20696 -3.34864,24.1687 c 1.32584,1.98279 1.05655,3.70037 2.17676,4.62577 1.1202,0.9254 4.71826,1.72051 5.90006,1.93539 l 4.78963,0.79596 5.54304,0.18465 c 1.43368,0.4779 0.84125,1.31377 1.68488,0.54199 0.84363,-0.77179 3.26093,-3.32826 3.29255,-4.52904 l 0.0775,-0.90467 -1.01717,-5.63663 12.77349,-0.0529 10.17008,2.0315 c 1.53403,0.20142 2.77814,-0.13032 3.71164,-0.79848 0.93351,-0.66817 1.55451,-1.66174 1.04679,-2.58199 l -0.68725,-1.96154 -0.9491,-2.02299 c -0.77279,-0.89837 -1.60418,-2.10497 -2.2297,-2.80414 -0.62552,-0.69916 -1.073,-1.071 -2.12256,-1.1265 l -9.69836,0.0822 -10.788,-1.03859 1.19205,-2.4153 -1.45674,-6.08849 7.36562,1.14478 9.18694,-0.0816 c 0.27267,0.29116 -0.31694,-1.63533 0.34977,-2.40679 0.66671,-0.77146 2.62234,-0.41236 2.28295,-1.64265 l -1.78067,-4.18493 0.0753,1.41703 c 0.0182,0.23772 0.0318,0.48332 0.0394,0.73893 l -0.0394,-0.73893 c -0.13628,-1.77912 -0.56104,-3.06863 -1.16022,-4.02171 -0.67923,-1.08043 -1.99837,-1.81517 -3.27459,-1.80871 l -6.65569,1.35874 -6.44299,-1.98108 -1.41672,-8.14772 2.86905,-9.61958 c 7.68479,-2.31998 14.012,-7.26845 18.57208,-13.04606 4.56008,-5.77761 7.26024,-12.26511 7.26921,-19.78147 -1.4e-4,-9.48179 -4.79788,-17.66219 -11.46643,-23.092607 -6.66855,-5.43041 -14.96335,-7.56324 -25.17452,-7.56319 z m -0.24421,15.571007 c 15.39815,0 19.14346,11.57304 27.88066,15.84137 -8.96122,3.59623 -12.48251,15.84137 -27.88066,15.84137 -15.39815,0 -19.14347,-9.33273 -27.88066,-15.84137 9.63333,-6.28461 12.48253,-15.84137 27.88066,-15.84137 z"
       style="fill:#1a1a1a;fill-rule:evenodd;stroke-width:0.35994753" />
    <path
       style="fill:#000000;fill-rule:evenodd;stroke-width:0.39055395"
       d="m 150.78277,120.86713 c 0,8.00383 -2.53463,14.49224 -2.53463,14.49224 0,0 -2.53463,-6.48839 -2.53463,-14.49224 10e-6,-8.00385 2.53463,-14.49222 2.53463,-14.49222 0,0 2.53463,6.48841 2.53463,14.49222 z"
       id="path49"
       inkscape:connector-curvature="0"
       sodipodi:nodetypes="scscs" />
  </g>
</svg>
